<?xml version="1.0" encoding="utf-8"?>
<svg version="1.1" xmlns="http://www.w3.org/2000/svg" xmlns:xlink="http://www.w3.org/1999/xlink" viewBox="0 0 24 24" width="24" height="24">
<g>
	<path d="M11.18,13.24c0.54,0.68,0.81,1.45,0.81,2.3c0,0.73-0.19,1.39-0.57,1.98c-0.38,0.59-0.93,1.05-1.65,1.39
		c-0.72,0.34-1.56,0.51-2.51,0.51H1.49V5h5.5c0.98,0,1.83,0.17,2.53,0.5c0.71,0.33,1.24,0.78,1.6,1.34
		c0.36,0.56,0.54,1.19,0.54,1.88c0,0.83-0.22,1.52-0.66,2.08c-0.44,0.55-1.04,0.96-1.79,1.22C9.98,12.16,10.64,12.56,11.18,13.24z
		 M3.85,11.06h2.93c0.78,0,1.38-0.18,1.82-0.53c0.44-0.35,0.65-0.86,0.65-1.53c0-0.65-0.22-1.16-0.65-1.53
		C8.16,7.11,7.56,6.93,6.78,6.93H3.85V11.06z M8.94,16.92c0.46-0.39,0.69-0.93,0.69-1.62c0-0.71-0.24-1.27-0.73-1.68
		c-0.48-0.42-1.13-0.62-1.93-0.62H3.85v4.51h3.2C7.85,17.5,8.48,17.31,8.94,16.92z"/>
	<path d="M20.12,10.08c0.59,0.31,1.05,0.78,1.38,1.4c0.33,0.62,0.5,1.38,0.5,2.27v5.68h-1.58v-5.45c0-0.96-0.24-1.7-0.72-2.21
		C19.21,11.26,18.56,11,17.73,11c-0.84,0-1.52,0.26-2.01,0.79c-0.5,0.53-0.75,1.3-0.75,2.3v5.33h-1.6V6.41h1.6v4.75
		c0.32-0.49,0.75-0.87,1.31-1.14c0.56-0.27,1.18-0.4,1.87-0.4C18.87,9.61,19.53,9.77,20.12,10.08z"/>
</g>
</svg>
